#!OML:ASF F:\VICON\USERDATA\INSTALL\rory3\rory3.ASF
:FULLY-SPECIFIED
:DEGREES
39
root 0.8724787445376823 17.94843122430897 17.37295287207495 -3.945225885329485 1.011806169575154 0.07034643115204009
lfemur 0.9775030963390963 -2.601713333189068 -23.71561846976229
ltibia 13.04302144676273
lfoot 3.5912985828719863 -13.267406941927671
ltoes -4.727157506820025
rfemur -28.4472792228687 -6.5069270591595805 21.406448285940414
rtibia 64.17867430084054
rfoot -1.9133232237440767 -7.921106290024786
rtoes -18.766768799380575
lowerback -1.0 -1.8414381753449773 -2.8291785326104586
upperback -0.11274980565814549 -0.7643705947977877 1.191360313260305
thorax -6.157929008375568 -1.0431339319155075 4.0824292372486335
lowerneck -17.010434543621976 -3.641002616235915 -2.2063334035812283
upperneck 20.012036448462702 -5.330310475509404 3.7586208226484144
head 9.166624742211425 -2.1771751512784125 0.7730605243729225
lclavicle 1.4120148229919958e-14 1.1569654218670937e-14
lhumerus -25.71646775477806 -3.5749212019678303 82.61310973120331
lradius 32.02842613181836
lwrist 11.358166280282507
lhand -31.88187197624846 22.00258542334483
lfingers nan
lthumb -4.863049393423677 52.68241016381709
rclavicle 1.5218841616553568e-14 1.2454954696213936e-14
rhumerus -38.47164101682634 -28.345609088889276 -71.77795803834444
rradius 25.995584889595634
rwrist 6.281554778562077
rhand -18.771605791573066 -1.0
rfingers nan
rthumb 7.905972288177384 -1.351761263700591
40
root 0.8636174692722532 17.944900020248447 17.909581794109762 -3.366602908035472 1.3503999884884847 0.4459992896014202
lfemur 4.150737805754162 -2.0740853882927017 -24.08983560881746
ltibia 10.98403854873336
lfoot 2.9869765205131573 -13.022385002032092
ltoes -9.085884382948025
rfemur -28.92775778205909 -6.14943452575791 21.69462538257535
rtibia 53.55972977974034
rfoot -0.3474027816350125 -10.014645216016456
rtoes -7.0111994791343415
lowerback -1.0 -1.900223504294214 -3.518620645351981
upperback -0.1670448823069824 -0.933511962345349 1.2894223116617718
thorax -6.0478732877761505 -1.0967140021901107 4.588518199021595
lowerneck -16.896905861604786 -3.7570214224973535 -2.19662019371247
upperneck 19.797597191978987 -5.465295616732008 3.7196236453452713
head 9.037342216382802 -2.2384065071151142 0.7846171850880259
lclavicle -8.401347189508618e-15 1.1930565835704463e-14
lhumerus -24.23479666285497 -4.706257396194239 82.2869099358371
lradius 33.99769358085224
lwrist 13.109987842464896
lhand -29.75092886192552 26.620407751820462
lfingers nan
lthumb -2.7588555935830383 57.46300056284052
rclavicle -8.367578813460654e-15 1.2271810558753986e-14
rhumerus -39.456940339539095 -28.794348512272567 -71.06699373930259
rradius 25.783363948086045
rwrist 6.569291371020038
rhand -18.667923734808284 -1.0
rfingers nan
rthumb 7.981256811417798 -5.576894048702314
41
root 0.8518183184747917 17.961742129037585 18.486960177735018 -2.3463052019656523 1.335245789204389 0.3916056335536613
lfemur 7.31277668957891 -2.1811481816531564 -24.079072635785415
ltibia 8.092001234045057
lfoot 3.6880819833278755 -12.924186511861546
ltoes -7.247749537264091
rfemur -28.74508601760332 -4.66802481112991 21.990181385919964
rtibia 39.84061479280516
rfoot 4.446014122774025 -11.536597780729887
rtoes -4.910415866199961
lowerback -1.0 -2.0053951477334415 -3.8916889655687514
upperback -0.22949593124531853 -1.1016486498447797 1.5148754685802026
thorax -5.670808195555248 -1.1471954008541771 4.952358193761096
lowerneck -17.473460922507638 -3.669541752516737 -2.3596769135265876
upperneck 19.73348738723009 -5.294185965897601 3.8085793264853134
head 9.051227521979182 -2.1525475540365315 0.8725870687361046
lclavicle -1.6394326920167545e-14 8.410482763159182e-15
lhumerus -22.78019481803718 -4.964724137772366 81.71660570163075
lradius 34.71092307058134
lwrist 13.38181672273593
lhand -31.575973511843376 19.952416414201554
lfingers nan
lthumb -4.5423456927725026 50.823766601774125
rclavicle -1.580558451542788e-14 9.273901075845866e-15
rhumerus -39.72386567891374 -29.466986691713707 -70.5459798480753
rradius 25.051183390564766
rwrist 6.568937898406201
rhand -20.207756825350735 -1.0
rfingers nan
rthumb 6.491522192282516 -8.191363627379424
42
root 0.8403467434357061 17.9299333031544 18.425269244796453 -1.922539339359151 1.7647995472070543 0.577055625629169
lfemur 10.95057010845628 -2.033010296685127 -24.233547748909068
ltibia 4.9204084328575455
lfoot 4.634134426873406 -13.738692219204886
ltoes -9.054739026219314
rfemur -27.431996442848213 -1.9658172945571977 21.030972090099787
rtibia 26.137103550642863
rfoot 4.875328445613845 -13.91425103473558
rtoes -5.352537833778794
lowerback -1.0 -2.132162830669956 -4.387822588904211
upperback -0.3508716945225233 -1.3736357065658584 1.6066978750496206
thorax -5.545533326070215 -1.2205516694795446 5.326987134307684
lowerneck -17.683544944734663 -3.6328912164910783 -2.174652399567993
upperneck 19.84846745835528 -5.209433351337236 3.458781142911281
head 9.096541467072166 -2.1310937840649697 0.7695691159737748
lclavicle -2.042717656964695e-14 -2.0818750076103186e-15
lhumerus -21.979661045713303 -5.316740509243978 81.36203894342725
lradius 35.282681182821946
lwrist 13.371342695227359
lhand -32.46061391396424 16.108025283994536
lfingers nan
lthumb -5.383612576774581 47.07141104216447
rclavicle -2.0180485368602273e-14 -1.3019610361299963e-15
rhumerus -40.45329691522493 -30.046724068565073 -69.89250561798566
rradius 24.589119703247388
rwrist 6.19930278900037
rhand -18.866164509219747 -1.0
rfingers nan
rthumb 7.783066184050267 -6.618149305405442
